# ProBuilder 5.0.6
# https://unity3d.com/unity/features/worldbuilding/probuilder
# 9/13/2022 8:47:27 PM

mtllib ./Box.mtl
o Box

g Box
v 0.4828668 -0.45009 0.4828668
v -0.2329168 -0.45009 0.4828668
v 0.4828668 -0.45009 -0.2329168
v -0.2329168 -0.45009 -0.2329168
v 0.5 -0.5 -0.2500501
v -0.2500501 -0.5 -0.2500501
v 0.5 -0.5 0.5
v -0.2500501 -0.5 0.5
v 0.5 0.2500499 0.5
v -0.2500501 0.2500499 0.5
v 0.4828668 0.2500499 0.4828668
v -0.2329168 0.2500499 0.4828668
v 0.5 0.2500499 -0.2500501
v 0.4828668 0.2500499 -0.2329168
v -0.2500501 0.2500499 -0.2500501
v -0.2329168 0.2500499 -0.2329168
v -0.2500501 0.2337718 0.5
v 0.5 0.2337718 0.5
v -0.2500501 -0.0581491 0.8501701
v -0.2500501 -0.04187095 0.8501701
v 0.5 -0.04187095 0.8501701
v 0.5 -0.0581491 0.8501701
v -0.2500501 0.2337718 -0.2500501
v -0.6001201 -0.0581491 -0.2500501
v -0.6001201 -0.04187095 -0.2500501
v -0.6001201 -0.04187095 0.5
v -0.6001201 -0.0581491 0.5
v 0.5 0.2337718 -0.2500501
v 0.5 -0.0581491 -0.6001201
v 0.5 -0.04187095 -0.6001201
v -0.2500501 -0.04187095 -0.6001201
v -0.2500501 -0.0581491 -0.6001201
v 0.85017 -0.0581491 0.5
v 0.85017 -0.04187095 0.5
v 0.85017 -0.04187095 -0.2500501
v 0.85017 -0.0581491 -0.2500501

vt -0.4828668 0.4828668
vt 0.2329168 0.4828668
vt -0.4828668 -0.2329168
vt 0.2329168 -0.2329168
vt 0.5 -0.2500501
vt -0.2500501 -0.2500501
vt 0.5 0.5
vt -0.2500501 0.5
vt -0.5 0.5
vt 0.2500501 0.5
vt -0.5 -0.2500501
vt 0.2500501 -0.2500501
vt -0.4828668 0.2500499
vt 0.2329168 0.2500499
vt -0.4828668 -0.45009
vt 0.2329168 -0.45009
vt -0.2329168 0.2500499
vt 0.4828668 0.2500499
vt -0.2329168 -0.45009
vt 0.4828668 -0.45009
vt 0.5 -0.5
vt -0.2500501 -0.5
vt -0.2500501 0.2337718
vt 0.5 0.2337718
vt -0.2500501 -0.0581491
vt -0.2500501 -0.04187095
vt 0.5 -0.04187095
vt 0.5 -0.0581491
vt 0.2500501 -0.5
vt -0.5 -0.5
vt -0.5 0.2337718
vt 0.2500501 0.2337718
vt -0.5 -0.0581491
vt -0.5 -0.04187095
vt 0.2500501 -0.04187095
vt 0.2500501 -0.0581491
vt 0.5 0.2500499
vt 0.85017 -0.0581491
vt 0.85017 -0.04187095
vt -0.2239354 0.5
vt -0.2239354 -0.2500501
vt -0.6798266 0.5
vt -0.6798266 -0.2500501
vt -0.5 0.2500499
vt -0.85017 -0.04187095
vt -0.85017 -0.0581491
vt 0.2343587 -0.2500501
vt 0.2343587 0.5
vt 0.69025 -0.2500501
vt 0.69025 0.5
vt -0.04232457 0.5
vt -0.04232457 -0.2500501
vt -0.498139 0.5
vt -0.498139 -0.2500501
vt 0.2500501 0.2500499
vt 0.6001201 -0.0581491
vt 0.6001201 -0.04187095
vt -0.2500501 0.2500499
vt -0.6001201 -0.04187095
vt -0.6001201 -0.0581491
vt 0.03189942 -0.2500501
vt 0.03189942 0.5
vt 0.4877139 -0.2500501
vt 0.4877139 0.5
vt -0.5 -0.03189942
vt 0.2500501 -0.03189942
vt -0.5 -0.4877139
vt 0.2500501 -0.4877139
vt -0.2500501 -0.04232457
vt 0.5 -0.04232457
vt -0.2500501 -0.498139
vt 0.5 -0.498139
vt 0.5 0.2343589
vt -0.2500501 0.2343589
vt 0.5 0.6902502
vt -0.2500501 0.6902502
vt 0.2500501 0.2239355
vt -0.5 0.2239355
vt 0.2500501 0.6798268
vt -0.5 0.6798268

vn 0 1 0
vn 0 -1 0
vn 0 0 -1
vn -1 0 0
vn 1 0 0
vn 0 0 1
vn 0.6403301 0.7680997 0
vn -0.6403301 -0.7680997 0
vn 0.640438 -0.7680098 0
vn -0.640438 0.7680098 0
vn 0 0.7680098 -0.640438
vn 0 -0.7680098 0.640438
vn 0 -0.7681 -0.64033
vn 0 0.7681 0.64033

usemtl Lit
f 3/3/1 4/4/1 2/2/1 1/1/1
f 7/7/2 8/8/2 6/6/2 5/5/2
f 11/1/1 12/2/1 10/10/1 9/9/1
f 14/3/1 11/1/1 9/9/1 13/11/1
f 12/2/1 16/4/1 15/12/1 10/10/1
f 16/4/1 14/3/1 13/11/1 15/12/1
f 1/15/3 2/16/3 12/14/3 11/13/3
f 3/19/4 1/20/4 11/18/4 14/17/4
f 2/15/5 4/16/5 16/14/5 12/13/5
f 4/19/6 3/20/6 14/18/6 16/17/6
f 18/24/6 17/23/6 8/22/6 7/21/6
f 21/27/6 20/26/6 19/25/6 22/28/6
f 17/24/4 23/23/4 6/22/4 8/21/4
f 26/27/4 25/26/4 24/25/4 27/28/4
f 6/29/3 23/32/3 28/31/3 5/30/3
f 32/36/3 31/35/3 30/34/3 29/33/3
f 5/29/5 28/32/5 18/31/5 7/30/5
f 36/36/5 35/35/5 34/34/5 33/33/5
f 33/38/6 34/39/6 9/37/6 18/24/6
f 34/42/7 35/43/7 13/41/7 9/40/7
f 35/45/3 36/46/3 28/31/3 13/44/3
f 36/49/8 33/50/8 18/48/8 28/47/8
f 27/53/9 24/54/9 23/52/9 17/51/9
f 24/56/3 25/57/3 15/55/3 23/32/3
f 26/59/6 27/60/6 17/23/6 10/58/6
f 25/63/10 26/64/10 10/62/10 15/61/10
f 29/56/5 30/57/5 13/55/5 28/32/5
f 30/67/11 31/68/11 15/66/11 13/65/11
f 31/59/4 32/60/4 23/23/4 15/58/4
f 32/71/12 29/72/12 28/70/12 23/69/12
f 22/75/13 19/76/13 17/74/13 18/73/13
f 19/38/4 20/39/4 10/37/4 17/24/4
f 21/45/5 22/46/5 18/31/5 9/44/5
f 20/79/14 21/80/14 9/78/14 10/77/14

